<?xml version="1.0" encoding="UTF-8"?>
<svg id="_레이어_1" data-name="레이어_1" xmlns="http://www.w3.org/2000/svg" version="1.1" viewBox="0 0 81.7 34.37">
  <!-- Generator: Adobe Illustrator 30.1.0, SVG Export Plug-In . SVG Version: 2.1.1 Build 136)  -->
  <defs>
    <style>
      .st0 {
        font-size: 5px;
      }

      .st0, .st1, .st2, .st3 {
        fill: #0b318f;
      }

      .st0, .st4 {
        font-family: KBIZgoB, 'KBIZgo B';
      }

      .st1 {
        letter-spacing: -.1em;
      }

      .st5, .st6, .st7, .st8, .st9 {
        fill: none;
        stroke-miterlimit: 10;
      }

      .st5, .st7 {
        stroke-width: .5px;
      }

      .st5, .st9 {
        stroke: #0b318f;
      }

      .st2, .st10 {
        letter-spacing: -.1em;
      }

      .st6 {
        opacity: .5;
      }

      .st6, .st7, .st8 {
        stroke: #231815;
      }

      .st6, .st8, .st9 {
        stroke-width: .25px;
      }

      .st10, .st11 {
        fill: #231815;
      }

      .st4 {
        font-size: 13.33px;
      }
    </style>
  </defs>
  <g>
    <path class="st6" d="M41.12,7.35h15.42s17.4,0,17.4,0"/>
    <path class="st8" d="M54.91,8.5h5.89s6.65,0,6.65,0"/>
    <path class="st6" d="M21.01,7.14h5.89s6.65,0,6.65,0"/>
    <path class="st6" d="M24.54,20.22h5.89s6.65,0,6.65,0"/>
    <g>
      <path class="st3" d="M43.29,12.99c.06-.1.13-.21.21-.33.04-.06.12-.15.24-.26.12-.11.27-.24.46-.38.16-.12.2-.25.11-.38-.09-.13-.31-.27-.65-.41-.12-.04-.29-.09-.52-.15s-.49-.14-.79-.24c-.18-.02-.35-.05-.5-.09-.15-.04-.3-.08-.44-.12-.16-.04-.31-.08-.44-.11-.13-.03-.26-.07-.38-.11-.02.79-.09,1.51-.21,2.15-.12.64-.29,1.2-.52,1.69-.11.23-.22.46-.32.67h5.5c-.06-.05-.1-.1-.17-.15-.17-.14-.36-.27-.56-.4-.24-.12-.48-.23-.7-.33-.22-.1-.44-.2-.64-.3.06-.14.12-.27.18-.4.04-.12.09-.23.15-.33Z"/>
      <path class="st3" d="M36.41,11.19c.08.1.2.16.37.17.16.01.35-.04.58-.14.45-.2.88-.45,1.31-.75.43-.29.85-.64,1.28-1.05.39-.37.73-.71,1.04-1.04.3-.32.57-.63.79-.91h.64c.08.08.16.18.24.3.08.12.17.26.27.43.06.18.12.38.17.58.05.2.11.41.17.61.06.37.14.68.23.94.09.26.2.46.32.58.1.16.25.27.46.32.2.05.46.05.76-.02.26-.04.49-.14.67-.3.18-.16.32-.39.43-.67.06-.24.07-.49.02-.73-.05-.24-.15-.49-.29-.73-.16-.18-.32-.34-.47-.47s-.3-.25-.44-.35c-.08-.02-.16-.05-.24-.09-.08-.04-.16-.08-.24-.12-.08-.04-.16-.08-.24-.12-.08-.04-.16-.09-.24-.15h4.2c.06,0,.12-.01.18-.03h.08s.07,0,.11-.03c-.18.3-.36.6-.52.88-.16.28-.33.55-.52.79-.18.26-.37.51-.55.73-.18.22-.37.43-.55.61-.1.12-.17.22-.21.29-.04.07-.04.14,0,.2,0,.06.02.12.06.17.04.05.1.08.18.08-.06.43-.13.83-.2,1.2-.07.38-.15.72-.23,1.02-.06.18-.12.35-.18.5s-.12.31-.18.47c-.06.14-.12.28-.17.41-.02.05-.04.09-.06.14h5.68c-.35-.26-.71-.5-1.08-.72-.38-.21-.78-.38-1.2-.5.06-.1.12-.21.18-.33.02-.08.06-.18.12-.3.06-.12.13-.25.21-.4.02-.06.09-.15.21-.26.12-.11.27-.24.46-.38.18-.12.23-.25.14-.38-.09-.13-.31-.27-.65-.41-.04,0-.09-.01-.14-.03-.05-.02-.11-.04-.17-.06-.06,0-.13-.01-.2-.03-.07-.02-.14-.05-.2-.09-.1,0-.19,0-.27-.03-.08-.02-.16-.04-.24-.06l-.49-.12c.37-.18.72-.4,1.07-.64.34-.24.67-.52.97-.82.3-.28.59-.58.87-.88.27-.3.54-.63.81-.97h.94c.08.1.16.22.24.35.08.13.15.27.21.41.04.18.08.36.12.52.04.16.09.33.15.52.02.12.05.24.08.37.03.12.07.24.11.37,0,.16.02.3.08.43.05.12.13.22.23.3-.1,0-.19,0-.27-.03-.08-.02-.17-.04-.27-.06-.08,0-.17,0-.27-.03-.1-.02-.2-.05-.3-.09-.24-.02-.45-.04-.61-.06-.16-.02-.29-.03-.4-.03l.06,4.48h2.82l-.04-2.22c0-.06.01-.11.03-.15.02-.04.04-.07.06-.09v.05s.01.03.03.05c0,.02,0,.04.03.05.02.01.04.02.06.02,0,.04.02.08.05.12.03.04.08.07.14.09.26.24.5.49.72.73.21.24.38.49.5.73.09.24.18.44.27.64h2.84c.09-.21.11-.44.05-.67-.06-.24-.19-.5-.4-.76-.26-.3-.56-.56-.9-.78-.33-.21-.71-.39-1.11-.53-.43-.12-.81-.2-1.14-.23-.33-.03-.6-.02-.81.02.04-.04.08-.09.11-.15.03-.06.06-.13.08-.21,0-.06-.02-.12-.06-.17-.04-.05-.09-.11-.15-.17h.09s.08,0,.12-.03c.06,0,.11-.01.15-.03.2-.06.39-.15.55-.27.16-.12.29-.28.4-.49.08-.18.12-.38.11-.59-.01-.21-.07-.46-.17-.75-.06-.14-.16-.29-.3-.46-.14-.16-.3-.32-.49-.49-.12-.06-.23-.12-.33-.18-.1-.06-.2-.12-.3-.18-.08-.04-.17-.09-.26-.14s-.18-.11-.26-.17h5.12c.14,0,.27-.03.4-.09.12-.06.23-.16.33-.3.06-.12.04-.26-.06-.43-.1-.16-.27-.35-.52-.58-.39-.3-.72-.56-.99-.76-.27-.2-.49-.37-.65-.49-.18-.08-.35-.09-.52-.02-.16.07-.3.22-.43.44l-.76,1.07h-3.87c.08-.1.17-.21.27-.33.02-.04.05-.09.09-.14.04-.05.08-.11.12-.17.04-.06.09-.13.14-.2.05-.07.11-.15.17-.23.06-.06.12-.13.18-.2.06-.07.13-.15.21-.23.06-.08.13-.16.21-.23.08-.07.16-.15.24-.23.12-.12.13-.25.02-.38-.11-.13-.35-.27-.72-.41-.06,0-.21-.04-.46-.11-.24-.07-.58-.17-1-.29-.43-.08-.76-.15-.99-.21-.23-.06-.36-.1-.38-.12-.08.37-.17.73-.26,1.1s-.2.71-.32,1.04c-.14.37-.28.71-.43,1.02-.14.31-.27.6-.4.87-.02-.06-.05-.12-.08-.18-.03-.06-.08-.13-.14-.21-.06-.06-.13-.13-.21-.2s-.15-.14-.21-.2c-.2-.14-.39-.28-.56-.41-.17-.13-.32-.25-.44-.35-.14-.1-.27-.19-.38-.26-.11-.07-.2-.14-.26-.2-.16-.06-.32-.06-.47,0-.15.06-.29.19-.41.4l-.7,1.07h-2.5c.08-.12.17-.24.27-.37.06-.1.13-.2.21-.3.08-.1.17-.21.27-.33l.37-.37c.08-.06.16-.13.23-.2.07-.07.15-.15.23-.23.12-.12.13-.25.03-.4-.1-.14-.31-.29-.64-.46l-3.08-.76c-.14.75-.32,1.48-.55,2.18-.22.7-.49,1.38-.79,2.02-.35.67-.72,1.29-1.11,1.86-.4.57-.84,1.07-1.32,1.49-.18.18-.28.33-.3.46-.02.12.03.21.15.27Z"/>
    </g>
    <path class="st11" d="M64.81,20.22c-.06-.02-.12-.06-.18-.11-.06-.05-.12-.1-.18-.14-.08-.04-.16-.09-.23-.15-.07-.06-.15-.12-.23-.18-.1-.04-.2-.09-.3-.14-.1-.05-.21-.11-.33-.17-.1-.06-.22-.12-.35-.18-.13-.06-.26-.12-.38-.18-.14.49-.28.94-.41,1.35-.13.42-.26.8-.38,1.14-.16.37-.32.72-.47,1.05s-.31.64-.47.93c-.1-.3-.19-.64-.26-1.02-.07-.38-.13-.78-.17-1.2-.06-.41-.11-.83-.14-1.26s-.05-.89-.05-1.35h4.51c.28,0,.49-.03.61-.09.12-.06.16-.17.12-.33-.06-.12-.16-.27-.29-.44-.13-.17-.3-.37-.5-.59-.08-.06-.16-.12-.24-.18-.08-.06-.15-.14-.21-.24-.06-.02-.11-.05-.15-.09-.04-.04-.08-.08-.12-.12l-.24-.24s.08,0,.12-.03c.04,0,.08-.01.12-.03.18-.08.35-.21.5-.38.06-.07.11-.17.17-.25h-2.37c.05.09.1.18.15.27-.04.02-.08.05-.12.09-.04.04-.07.07-.09.09-.02.02-.03.04-.03.06l-.61,1.43h-1.31l-.04-1.94h-2.82l.03,1.94h-1.07s.05-.07.09-.09l.12-.06c.43-.43.66-.82.72-1.19.03-.21,0-.41-.1-.6h-2.91c.06.06.12.11.17.18.17.2.33.43.47.67.12.28.24.52.37.7s.26.31.43.4h-4.38c.2-.1.41-.23.61-.38.2-.15.42-.32.64-.5.18-.18.39-.4.61-.64.11-.12.24-.28.36-.42h-5.11c.08.09.18.16.25.25.18.23.33.47.46.72.1.28.22.5.37.64.14.14.3.21.49.21v.12h-4.54c.18-.1.38-.23.58-.38.2-.15.42-.33.64-.53.2-.18.42-.39.65-.62.12-.12.24-.27.36-.4h-2.55c-.06.12-.13.25-.19.36-.23.43-.46.81-.69,1.16-.04.04-.07.08-.09.11-.02.03-.03.06-.03.08-.04.06-.06.11-.06.14v.08h-1.04v1.16h.91c.12,0,.22,0,.3-.02s.15-.02.21-.02h2.38v1.31h-3.41v1.1h3.41v1.43h-3.41v1.1h3.41v1.61h-3.41v1.13h3.41v1.49l-4.08.09s0,.05.02.08c0,.03.03.08.05.14.04.08.08.17.11.26.03.09.08.2.14.32.06.24.13.46.2.65.07.19.14.36.2.5.08.32.2.54.35.65.15.11.32.12.5.02.18-.12.35-.21.52-.27.16-.06.32-.1.49-.12l11.3-1.55c.24-.02.42-.08.53-.17.11-.09.17-.22.17-.38-.02-.14-.1-.25-.24-.33-.14-.08-.33-.12-.58-.12l-2.1.03v-1.28h3.01c.14,0,.25-.03.33-.09.08-.06.14-.15.18-.27,0-.12-.04-.24-.11-.37-.07-.12-.18-.25-.32-.4-.16-.14-.34-.3-.53-.47-.19-.17-.41-.35-.65-.53-.26-.16-.49-.24-.67-.24s-.31.09-.4.27l-.52.97h-.33v-1.61h2.77c.14,0,.26-.03.35-.09.09-.06.17-.15.23-.27.02-.1,0-.21-.06-.33-.06-.12-.15-.25-.27-.4-.18-.14-.38-.29-.58-.44-.2-.15-.42-.32-.64-.5-.24-.14-.45-.21-.62-.2-.17.01-.3.1-.38.26l-.43.88h-.37v-1.43h2.89s.08,0,.12-.03c.06,0,.11-.01.15-.03.04.47.1.94.18,1.42.08.48.18.97.3,1.48.08.53.19,1,.33,1.43.14.43.3.8.49,1.13-.35.55-.72,1.02-1.11,1.43-.4.41-.82.76-1.26,1.07-.47.3-.85.55-1.16.73-.3.18-.53.31-.67.4-.24.12-.41.25-.49.38-.08.13-.07.26.03.38.06.12.16.2.29.23.13.03.31.02.53-.05.06-.02.15-.05.26-.09.11-.04.26-.09.44-.15.16-.06.36-.13.59-.21.23-.08.5-.18.81-.3.55-.2,1.06-.47,1.54-.81.48-.33.92-.73,1.32-1.17.2.34.48.67.84.99.35.31.78.62,1.26.93.47.3.95.5,1.46.58.51.08,1.04.05,1.58-.09.06-.02.09-.28.09-.79s-.04-1.27-.12-2.28c-.08-.99-.17-1.75-.26-2.25s-.19-.76-.29-.76c-.12,0-.23.07-.33.21-.1.14-.18.33-.24.58l-.76,2.13c-.06,0-.15-.03-.26-.09-.11-.06-.24-.17-.38-.33-.18-.12-.34-.26-.47-.43-.13-.16-.25-.33-.35-.52.18-.3.39-.6.62-.88.23-.28.49-.58.78-.88.24-.26.49-.6.75-1,.25-.41.51-.88.78-1.43.06-.14.15-.27.27-.4.12-.12.29-.22.52-.3.18-.06.22-.17.11-.33-.11-.16-.38-.38-.81-.64ZM51.5,27.65h-1.61v-9.04h1.61v9.04ZM57.44,20.04c-.18-.14-.38-.29-.59-.46-.21-.16-.43-.33-.65-.52-.24-.14-.46-.2-.64-.18-.18.02-.31.12-.4.3l-.37.73h-.37v-1.31h3.04v.37c0,.12.01.24.03.37v.41c0,.15,0,.31.03.47l-.09-.18Z"/>
    <path class="st11" d="M16.13,8.52v1.77c-.02.71-.06,1.42-.11,2.13-.05.71-.11,1.42-.17,2.13H7.79v.37h20.08s-.04-.09-.07-.14c-.12-.17-.27-.35-.46-.53-.28-.24-.59-.49-.91-.75s-.67-.52-1.04-.81c-.39-.24-.72-.34-.99-.3-.27.04-.48.24-.62.61l-.67,1.55h-4.2c.04-.67.08-1.36.12-2.07.04-.71.08-1.43.12-2.16,0-.34,0-.67.02-.97,0-.3.02-.58.02-.82,0-.26,0-.5.02-.7,0-.2.02-.39.02-.55h8.31c.39,0,.67-.05.85-.14s.27-.25.27-.47c-.04-.18-.12-.37-.24-.56-.12-.19-.28-.38-.49-.56-.24-.16-.52-.35-.82-.56-.3-.21-.65-.46-1.04-.75-.41-.24-.75-.35-1.02-.33-.27.02-.47.18-.59.49l-.67,1.49H7.09v1.4h9.04v1.25Z"/>
    <path class="st3" d="M34.33,27.89c-.16,0-.6-.21-1.32-.64-.72-.43-1.72-1.07-3-1.92-1.3-.83-2.38-2.02-3.23-3.56-.85-1.54-1.48-3.44-1.89-5.69h7.86c.43,0,.73-.05.91-.14.17-.08.24-.21.24-.37H13.62v.51h7.95c-.3,1.83-.75,3.47-1.32,4.93s-1.27,2.74-2.09,3.84c-.85,1.12-1.71,2.05-2.57,2.8-.86.75-1.73,1.34-2.6,1.77-.3.12-.5.25-.59.4-.09.14-.08.29.05.46.1.16.23.27.4.33s.37.07.61.03c1.1-.2,2.17-.61,3.21-1.22s2.09-1.4,3.12-2.38c.99-.97,1.84-2.1,2.54-3.38s1.25-2.71,1.66-4.29c.43,1.81.97,3.39,1.63,4.75.66,1.36,1.42,2.51,2.27,3.44.83.95,1.52,1.69,2.07,2.21.55.52.95.81,1.22.87.06.02.14.03.24.02.1-.01.21-.05.33-.11.12-.06.29-.17.5-.32.21-.15.48-.35.81-.59.18-.16.35-.32.52-.46.16-.14.31-.26.46-.37.12-.12.23-.22.33-.3.1-.08.18-.15.24-.21.1-.12.13-.22.08-.29-.05-.07-.17-.11-.35-.11Z"/>
    <path class="st8" d="M7.83,14.91h28.89s32.59,0,32.59,0"/>
    <path class="st8" d="M3.16,15.57h28.89s32.59,0,32.59,0"/>
    <path class="st5" d="M54.91,6.53h5.89s6.65,0,6.65,0"/>
    <path class="st8" d="M19.06,6.18h5.89s6.65,0,6.65,0"/>
    <path class="st7" d="M63.04,18.29h5.89s6.65,0,6.65,0"/>
    <path class="st9" d="M25.73,19.41h5.89s6.65,0,6.65,0"/>
    <path class="st6" d="M66,20.06h5.89s6.65,0,6.65,0"/>
    <path class="st7" d="M18.27,8.5h5.89s6.65,0,6.65,0"/>
  </g>
  <g>
    <text class="st0" transform="translate(7.69 49.75)"><tspan x="0" y="0">天</tspan><tspan x="0" y="5">籤</tspan></text>
    <text class="st4" transform="translate(15.43 55.12)"><tspan class="st1" x="0" y="0">D</tspan><tspan class="st10" x="8.21" y="0">IVINE </tspan><tspan class="st2" x="39.03" y="0">LOT</tspan></text>
    <rect class="st5" x="6.56" y="44.89" width="7.26" height="11.73" rx=".57" ry=".57"/>
  </g>
  <g>
    <path class="st6" d="M182.82,7.35h15.42s17.4,0,17.4,0"/>
    <path class="st8" d="M196.61,8.5h5.89s6.65,0,6.65,0"/>
    <path class="st6" d="M162.71,7.14h5.89s6.65,0,6.65,0"/>
    <path class="st6" d="M166.24,20.22h5.89s6.65,0,6.65,0"/>
    <g>
      <path class="st3" d="M184.99,12.99c.06-.1.13-.21.21-.33.04-.06.12-.15.24-.26.12-.11.27-.24.46-.38.16-.12.2-.25.11-.38-.09-.13-.31-.27-.65-.41-.12-.04-.29-.09-.52-.15s-.49-.14-.79-.24c-.18-.02-.35-.05-.5-.09-.15-.04-.3-.08-.44-.12-.16-.04-.31-.08-.44-.11-.13-.03-.26-.07-.38-.11-.02.79-.09,1.51-.21,2.15-.12.64-.29,1.2-.52,1.69-.11.23-.22.46-.32.67h5.5c-.06-.05-.1-.1-.17-.15-.17-.14-.36-.27-.56-.4-.24-.12-.48-.23-.7-.33-.22-.1-.44-.2-.64-.3.06-.14.12-.27.18-.4.04-.12.09-.23.15-.33Z"/>
      <path class="st3" d="M178.11,11.19c.08.1.2.16.37.17.16.01.35-.04.58-.14.45-.2.88-.45,1.31-.75.43-.29.85-.64,1.28-1.05.39-.37.73-.71,1.04-1.04.3-.32.57-.63.79-.91h.64c.08.08.16.18.24.3.08.12.17.26.27.43.06.18.12.38.17.58.05.2.11.41.17.61.06.37.14.68.23.94.09.26.2.46.32.58.1.16.25.27.46.32.2.05.46.05.76-.02.26-.04.49-.14.67-.3.18-.16.32-.39.43-.67.06-.24.07-.49.02-.73-.05-.24-.15-.49-.29-.73-.16-.18-.32-.34-.47-.47s-.3-.25-.44-.35c-.08-.02-.16-.05-.24-.09-.08-.04-.16-.08-.24-.12-.08-.04-.16-.08-.24-.12-.08-.04-.16-.09-.24-.15h4.2c.06,0,.12-.01.18-.03h.08s.07,0,.11-.03c-.18.3-.36.6-.52.88-.16.28-.33.55-.52.79-.18.26-.37.51-.55.73-.18.22-.37.43-.55.61-.1.12-.17.22-.21.29-.04.07-.04.14,0,.2,0,.06.02.12.06.17.04.05.1.08.18.08-.06.43-.13.83-.2,1.2-.07.38-.15.72-.23,1.02-.06.18-.12.35-.18.5s-.12.31-.18.47c-.06.14-.12.28-.17.41-.02.05-.04.09-.06.14h5.68c-.35-.26-.71-.5-1.08-.72-.38-.21-.78-.38-1.2-.5.06-.1.12-.21.18-.33.02-.08.06-.18.12-.3.06-.12.13-.25.21-.4.02-.06.09-.15.21-.26.12-.11.27-.24.46-.38.18-.12.23-.25.14-.38-.09-.13-.31-.27-.65-.41-.04,0-.09-.01-.14-.03-.05-.02-.11-.04-.17-.06-.06,0-.13-.01-.2-.03-.07-.02-.14-.05-.2-.09-.1,0-.19,0-.27-.03-.08-.02-.16-.04-.24-.06l-.49-.12c.37-.18.72-.4,1.07-.64.34-.24.67-.52.97-.82.3-.28.59-.58.87-.88.27-.3.54-.63.81-.97h.94c.08.1.16.22.24.35.08.13.15.27.21.41.04.18.08.36.12.52.04.16.09.33.15.52.02.12.05.24.08.37.03.12.07.24.11.37,0,.16.02.3.08.43.05.12.13.22.23.3-.1,0-.19,0-.27-.03-.08-.02-.17-.04-.27-.06-.08,0-.17,0-.27-.03-.1-.02-.2-.05-.3-.09-.24-.02-.45-.04-.61-.06-.16-.02-.29-.03-.4-.03l.06,4.48h2.82l-.04-2.22c0-.06.01-.11.03-.15.02-.04.04-.07.06-.09v.05s.01.03.03.05c0,.02,0,.04.03.05.02.01.04.02.06.02,0,.04.02.08.05.12.03.04.08.07.14.09.26.24.5.49.72.73.21.24.38.49.5.73.09.24.18.44.27.64h2.84c.09-.21.11-.44.05-.67-.06-.24-.19-.5-.4-.76-.26-.3-.56-.56-.9-.78-.33-.21-.71-.39-1.11-.53-.43-.12-.81-.2-1.14-.23-.33-.03-.6-.02-.81.02.04-.04.08-.09.11-.15.03-.06.06-.13.08-.21,0-.06-.02-.12-.06-.17-.04-.05-.09-.11-.15-.17h.09s.08,0,.12-.03c.06,0,.11-.01.15-.03.2-.06.39-.15.55-.27.16-.12.29-.28.4-.49.08-.18.12-.38.11-.59-.01-.21-.07-.46-.17-.75-.06-.14-.16-.29-.3-.46-.14-.16-.3-.32-.49-.49-.12-.06-.23-.12-.33-.18-.1-.06-.2-.12-.3-.18-.08-.04-.17-.09-.26-.14s-.18-.11-.26-.17h5.12c.14,0,.27-.03.4-.09.12-.06.23-.16.33-.3.06-.12.04-.26-.06-.43-.1-.16-.27-.35-.52-.58-.39-.3-.72-.56-.99-.76-.27-.2-.49-.37-.65-.49-.18-.08-.35-.09-.52-.02-.16.07-.3.22-.43.44l-.76,1.07h-3.87c.08-.1.17-.21.27-.33.02-.04.05-.09.09-.14.04-.05.08-.11.12-.17.04-.06.09-.13.14-.2.05-.07.11-.15.17-.23.06-.06.12-.13.18-.2.06-.07.13-.15.21-.23.06-.08.13-.16.21-.23.08-.07.16-.15.24-.23.12-.12.13-.25.02-.38-.11-.13-.35-.27-.72-.41-.06,0-.21-.04-.46-.11-.24-.07-.58-.17-1-.29-.43-.08-.76-.15-.99-.21-.23-.06-.36-.1-.38-.12-.08.37-.17.73-.26,1.1s-.2.71-.32,1.04c-.14.37-.28.71-.43,1.02-.14.31-.27.6-.4.87-.02-.06-.05-.12-.08-.18-.03-.06-.08-.13-.14-.21-.06-.06-.13-.13-.21-.2s-.15-.14-.21-.2c-.2-.14-.39-.28-.56-.41-.17-.13-.32-.25-.44-.35-.14-.1-.27-.19-.38-.26-.11-.07-.2-.14-.26-.2-.16-.06-.32-.06-.47,0-.15.06-.29.19-.41.4l-.7,1.07h-2.5c.08-.12.17-.24.27-.37.06-.1.13-.2.21-.3.08-.1.17-.21.27-.33l.37-.37c.08-.06.16-.13.23-.2.07-.07.15-.15.23-.23.12-.12.13-.25.03-.4-.1-.14-.31-.29-.64-.46l-3.08-.76c-.14.75-.32,1.48-.55,2.18-.22.7-.49,1.38-.79,2.02-.35.67-.72,1.29-1.11,1.86-.4.57-.84,1.07-1.32,1.49-.18.18-.28.33-.3.46-.02.12.03.21.15.27Z"/>
    </g>
    <path class="st11" d="M206.51,20.22c-.06-.02-.12-.06-.18-.11-.06-.05-.12-.1-.18-.14-.08-.04-.16-.09-.23-.15-.07-.06-.15-.12-.23-.18-.1-.04-.2-.09-.3-.14-.1-.05-.21-.11-.33-.17-.1-.06-.22-.12-.35-.18-.13-.06-.26-.12-.38-.18-.14.49-.28.94-.41,1.35-.13.42-.26.8-.38,1.14-.16.37-.32.72-.47,1.05s-.31.64-.47.93c-.1-.3-.19-.64-.26-1.02-.07-.38-.13-.78-.17-1.2-.06-.41-.11-.83-.14-1.26s-.05-.89-.05-1.35h4.51c.28,0,.49-.03.61-.09.12-.06.16-.17.12-.33-.06-.12-.16-.27-.29-.44-.13-.17-.3-.37-.5-.59-.08-.06-.16-.12-.24-.18-.08-.06-.15-.14-.21-.24-.06-.02-.11-.05-.15-.09-.04-.04-.08-.08-.12-.12l-.24-.24s.08,0,.12-.03c.04,0,.08-.01.12-.03.18-.08.35-.21.5-.38.06-.07.11-.17.17-.25h-2.37c.05.09.1.18.15.27-.04.02-.08.05-.12.09-.04.04-.07.07-.09.09-.02.02-.03.04-.03.06l-.61,1.43h-1.31l-.04-1.94h-2.82l.03,1.94h-1.07s.05-.07.09-.09l.12-.06c.43-.43.66-.82.72-1.19.03-.21,0-.41-.1-.6h-2.91c.06.06.12.11.17.18.17.2.33.43.47.67.12.28.24.52.37.7s.26.31.43.4h-4.38c.2-.1.41-.23.61-.38.2-.15.42-.32.64-.5.18-.18.39-.4.61-.64.11-.12.24-.28.36-.42h-5.11c.08.09.18.16.25.25.18.23.33.47.46.72.1.28.22.5.37.64.14.14.3.21.49.21v.12h-4.54c.18-.1.38-.23.58-.38.2-.15.42-.33.64-.53.2-.18.42-.39.65-.62.12-.12.24-.27.36-.4h-2.55c-.06.12-.13.25-.19.36-.23.43-.46.81-.69,1.16-.04.04-.07.08-.09.11-.02.03-.03.06-.03.08-.04.06-.06.11-.06.14v.08h-1.04v1.16h.91c.12,0,.22,0,.3-.02s.15-.02.21-.02h2.38v1.31h-3.41v1.1h3.41v1.43h-3.41v1.1h3.41v1.61h-3.41v1.13h3.41v1.49l-4.08.09s0,.05.02.08c0,.03.03.08.05.14.04.08.08.17.11.26.03.09.08.2.14.32.06.24.13.46.2.65.07.19.14.36.2.5.08.32.2.54.35.65.15.11.32.12.5.02.18-.12.35-.21.52-.27.16-.06.32-.1.49-.12l11.3-1.55c.24-.02.42-.08.53-.17.11-.09.17-.22.17-.38-.02-.14-.1-.25-.24-.33-.14-.08-.33-.12-.58-.12l-2.1.03v-1.28h3.01c.14,0,.25-.03.33-.09.08-.06.14-.15.18-.27,0-.12-.04-.24-.11-.37-.07-.12-.18-.25-.32-.4-.16-.14-.34-.3-.53-.47-.19-.17-.41-.35-.65-.53-.26-.16-.49-.24-.67-.24s-.31.09-.4.27l-.52.97h-.33v-1.61h2.77c.14,0,.26-.03.35-.09.09-.06.17-.15.23-.27.02-.1,0-.21-.06-.33-.06-.12-.15-.25-.27-.4-.18-.14-.38-.29-.58-.44-.2-.15-.42-.32-.64-.5-.24-.14-.45-.21-.62-.2-.17.01-.3.1-.38.26l-.43.88h-.37v-1.43h2.89s.08,0,.12-.03c.06,0,.11-.01.15-.03.04.47.1.94.18,1.42.08.48.18.97.3,1.48.08.53.19,1,.33,1.43.14.43.3.8.49,1.13-.35.55-.72,1.02-1.11,1.43-.4.41-.82.76-1.26,1.07-.47.3-.85.55-1.16.73-.3.18-.53.31-.67.4-.24.12-.41.25-.49.38-.08.13-.07.26.03.38.06.12.16.2.29.23.13.03.31.02.53-.05.06-.02.15-.05.26-.09.11-.04.26-.09.44-.15.16-.06.36-.13.59-.21.23-.08.5-.18.81-.3.55-.2,1.06-.47,1.54-.81.48-.33.92-.73,1.32-1.17.2.34.48.67.84.99.35.31.78.62,1.26.93.47.3.95.5,1.46.58.51.08,1.04.05,1.58-.09.06-.02.09-.28.09-.79s-.04-1.27-.12-2.28c-.08-.99-.17-1.75-.26-2.25s-.19-.76-.29-.76c-.12,0-.23.07-.33.21-.1.14-.18.33-.24.58l-.76,2.13c-.06,0-.15-.03-.26-.09-.11-.06-.24-.17-.38-.33-.18-.12-.34-.26-.47-.43-.13-.16-.25-.33-.35-.52.18-.3.39-.6.62-.88.23-.28.49-.58.78-.88.24-.26.49-.6.75-1,.25-.41.51-.88.78-1.43.06-.14.15-.27.27-.4.12-.12.29-.22.52-.3.18-.06.22-.17.11-.33-.11-.16-.38-.38-.81-.64ZM193.2,27.65h-1.61v-9.04h1.61v9.04ZM199.14,20.04c-.18-.14-.38-.29-.59-.46-.21-.16-.43-.33-.65-.52-.24-.14-.46-.2-.64-.18-.18.02-.31.12-.4.3l-.37.73h-.37v-1.31h3.04v.37c0,.12.01.24.03.37v.41c0,.15,0,.31.03.47l-.09-.18Z"/>
    <path class="st11" d="M157.83,8.52v1.77c-.02.71-.06,1.42-.11,2.13-.05.71-.11,1.42-.17,2.13h-8.07v.37h20.08s-.04-.09-.07-.14c-.12-.17-.27-.35-.46-.53-.28-.24-.59-.49-.91-.75s-.67-.52-1.04-.81c-.39-.24-.72-.34-.99-.3-.27.04-.48.24-.62.61l-.67,1.55h-4.2c.04-.67.08-1.36.12-2.07.04-.71.08-1.43.12-2.16,0-.34,0-.67.02-.97,0-.3.02-.58.02-.82,0-.26,0-.5.02-.7,0-.2.02-.39.02-.55h8.31c.39,0,.67-.05.85-.14s.27-.25.27-.47c-.04-.18-.12-.37-.24-.56-.12-.19-.28-.38-.49-.56-.24-.16-.52-.35-.82-.56-.3-.21-.65-.46-1.04-.75-.41-.24-.75-.35-1.02-.33-.27.02-.47.18-.59.49l-.67,1.49h-16.69v1.4h9.04v1.25Z"/>
    <path class="st3" d="M176.03,27.89c-.16,0-.6-.21-1.32-.64-.72-.43-1.72-1.07-3-1.92-1.3-.83-2.38-2.02-3.23-3.56-.85-1.54-1.48-3.44-1.89-5.69h7.86c.43,0,.73-.05.91-.14.17-.08.24-.21.24-.37h-20.27v.51h7.95c-.3,1.83-.75,3.47-1.32,4.93s-1.27,2.74-2.09,3.84c-.85,1.12-1.71,2.05-2.57,2.8-.86.75-1.73,1.34-2.6,1.77-.3.12-.5.25-.59.4-.09.14-.08.29.05.46.1.16.23.27.4.33s.37.07.61.03c1.1-.2,2.17-.61,3.21-1.22s2.09-1.4,3.12-2.38c.99-.97,1.84-2.1,2.54-3.38s1.25-2.71,1.66-4.29c.43,1.81.97,3.39,1.63,4.75.66,1.36,1.42,2.51,2.27,3.44.83.95,1.52,1.69,2.07,2.21.55.52.95.81,1.22.87.06.02.14.03.24.02.1-.01.21-.05.33-.11.12-.06.29-.17.5-.32.21-.15.48-.35.81-.59.18-.16.35-.32.52-.46.16-.14.31-.26.46-.37.12-.12.23-.22.33-.3.1-.08.18-.15.24-.21.1-.12.13-.22.08-.29-.05-.07-.17-.11-.35-.11Z"/>
    <path class="st8" d="M149.53,14.91h28.89s32.59,0,32.59,0"/>
    <path class="st8" d="M144.86,15.57h28.89s32.59,0,32.59,0"/>
    <path class="st5" d="M196.61,6.53h5.89s6.65,0,6.65,0"/>
    <path class="st8" d="M160.76,6.18h5.89s6.65,0,6.65,0"/>
    <path class="st7" d="M204.74,18.29h5.89s6.65,0,6.65,0"/>
    <path class="st9" d="M167.43,19.41h5.89s6.65,0,6.65,0"/>
    <path class="st6" d="M207.7,20.06h5.89s6.65,0,6.65,0"/>
    <path class="st7" d="M159.97,8.5h5.89s6.65,0,6.65,0"/>
  </g>
  <g>
    <text class="st0" transform="translate(149.39 49.75)"><tspan x="0" y="0">天</tspan><tspan x="0" y="5">籤</tspan></text>
    <text class="st4" transform="translate(157.13 55.12)"><tspan class="st1" x="0" y="0">D</tspan><tspan class="st10" x="8.21" y="0">IVINE </tspan><tspan class="st2" x="39.03" y="0">LOT</tspan></text>
    <rect class="st5" x="148.26" y="44.89" width="7.26" height="11.73" rx=".57" ry=".57"/>
  </g>
</svg>